<mxfile host="65bd71144e">
    <diagram id="pYTm18xHdTL9-Tp_MbHR" name="Page-1">
        <mxGraphModel dx="1051" dy="928" grid="1" gridSize="10" guides="1" tooltips="1" connect="1" arrows="1" fold="1" page="1" pageScale="1" pageWidth="850" pageHeight="1100" math="0" shadow="0">
            <root>
                <mxCell id="0"/>
                <mxCell id="1" parent="0"/>
                <mxCell id="4" value="" style="group" vertex="1" connectable="0" parent="1">
                    <mxGeometry x="80" y="240" width="1126" height="108" as="geometry"/>
                </mxCell>
                <mxCell id="2" value="" style="shape=image;verticalLabelPosition=bottom;labelBackgroundColor=default;verticalAlign=top;aspect=fixed;imageAspect=0;image=data:image/png,iVBORw0KGgoAAAANSUhEUgAABGYAAAA2CAIAAAAK6ghAAAAAAXNSR0IArs4c6QAAIABJREFUeAHtXWtTE0n3fz7IVEhMKiGRSyIoYUUWcRFUUFwRvADrBVmviHdEQfGKoIAgotwWJBAuCSGEBBISXF2ft1v7ar/D8/b/Cf7VM8kwmekeJmGAJJyqFDV0ek6f/p3fOd1nuqfzH0XSDvgAAoAAIAAIAAKAACAACAACgAAgAAhgEfgPthQKAQFAABAABAABQAAQAAQAAUAAEAAEFEk7IGWCRTZAABAABAABQAAQAAQAAUAAEAAEiAhAykSEBlJqQAAQAAQAAUAAEAAEAAFAABAABCBlgpQJEAAEAAFAABAABAABQAAQAAQAASIC/0lL3yXLR5G0Q5ucBp+YQgCMIqM5AEwAU0YEQNTmIABuuzk4x1ErQIk4MhZJVTAiCRkojw4BiQtokDIlcpoHYSU658HeBWBiYYmuEMCMDje4K1IEgGmRIpbw9YESCWBiMGICGDGmugApUyLnQhKpBmFFIlBSqgGYUlCSWAfAlAgUVFsnAsC0dQKYeLcDJRLApmDEBDBiTHUBUiZImdIgrMjokwAmgCkjAiBqcxAAt90cnOOoFaBEHBmLpCoYkYQMlEeHAKRMkDJByiQnByBGRxeJsHcBmFhYoFB2BIBpskMa7wKBEvFuQW0yzG3knNskAB/W3wVImYBSEFbk5AAMtOuPSqwEAJOFAi42FAFg2obCG4/CgRLxaDWezmBEHiDw7zoRiNGUqfx09XLgx9///CvyWQ78KD9dvc7+w+3CJzEA/npYwYvRACaAuR4E4N7NQQDcdnNwjqNWgBJxZCySqmBEEjJQHh0CMZoyLQf+KigsPlBw+EDB4b//+Rfbt+KjJ5cDf2G/iv9Co7n02uXqYqNezgUQEiy8sLLtwV8X5gAmiWZRlAOYUYAGt0SBQLwxTa4BQi4564qZUdhrE26JN0pEagK5TC+XnEj1l1R/s4wY0yBsgrNsnyZiNGX6+59/mXxJJGXSJqeRsim57Wc69Hhu9vkpQ7S/KGU43mq3vTiyU5KTI+X1uec/BHyzr0pSsLdEoM9v5y/9dv6SOCC8sBJj4GMR2JrCxAMzYmZG6wJCBsYPmGu6267S50vLKz/8Kz/83o+Vpq0hpxBhKGEQiB+mkZgjYOAaAwRfDtHNI5STMIyKaUoYfrk27O+o3rOxaEdo+hik0OYbcatAILYr33C8sWSLEz0lMkpK1rTZv8sUY7N2wYgVIQOiYbwhMy01ncBjqfocLj5udzjtDufh4uMEUWhwhZRJBBz2q4QEMxpmRkh+FkDuRVyBuba76Qy7DKkZKb88GF6ElIk/X+faffOv44ppJOhwDBQbIPhyxNw8Ejmbb76NaDHWKbE5KVNymjYS08cahbbEiFsFgli7cgzHG+FlcSdTOqPiOGUqKCzhGwaFm5WPzQ9b+yetcx7L+3uHM5jEw1TcPG9//+JR99iXGff0cPtv+zOYe5OzTt1+P+1Y+ra0MPfp6aXc1OB4Y/j5Usvwgntp2dr35HarM7jKZCiq/xJoP5tJ32sqapyde3WGWX3S7TlZ927Svvjnktv5+cWV/HQkx/Br21yAfvzMPIRe+bHUf9Mstt1uV1mrn3li7R25n2tYHfzw+pAd5qec/InJaYfT5XC6Jianf8rJ52MVulfGlAkLgjY5DQuy/nDLhPXTk9aRiYkP92696hyd/fygLF2fpiUaMU23u+x6+7jN8+eSe37g1bUDNMh0/cDHp4/fDk1Pzrm/vKs/aERGT/75zqDHcu1nI9PxlF9bZ2bbfzWuQkoCRFge+2BqScxEYGLAITMT7ylxDSaRaQRmIs/Fun9ymi7zxPX2iRmXzzk38/5hZTZn6Tg5794QpEyhqCJ0os0v2QK3JcYuvFtpyYwiMJA4QGBjL9nNiXKwsZoUYzffputscQsokZyWnHO+qd/p8v21vOyfHnxTzcw9RCN298M7b8YWPV7vWMftIlPw4SleTnIa1vTaZBLlCKYnUDcGKbT5RowUBJERhzSCYI1Lbhc/FyK2SzDuOr0pYW6PiFHxlzLl/pTpHyz938oZ/2Bp7k9M9hKaByNmfLW115hT0rRphVc/LVselCSjUdxU3Oxa/NJUaEzT6rMONU4vfKrL1qdp9dmn25em313Jz8hIyT7VMLo8WHcQ1dfn/Na9PN3+e67RlLLv3BOL38FszCOFOX12Rduiravu4J7MVPOJ2wNey4MSPZJjNKRkpJW12W2vjhkzdqZmGHYGZ/Aktul2oifWu871ubkpE0kfOSYosqVMRBDwICP3nn5+OCWj9Pn8h9rc5L03P7k6T6YyKRPWiHt+fTE/9e5afsauneaKxi/+oZu0sWijT7eez9qZpk0/Uj/sH2TK9TnVXd7xxlKU0+qzKtoWJx4dj3p3JclevPKtAlM0ZfqKA4fETJKnxDGYRKZF6v6I4Z6p1gvZqWnJmb/e+8P78coBXcgHIWXi+UIc/Sub20Y+AOEZRQ74hAEi4gGIJAc/IJJibIj8cWRriarKRonkXSUtC/Z3v+9NM+pSfz5xp6v1Kj03IM0lGAp11RVkmAzmioYR/+jdw/QchiCHNOyS5jzJaXjTk6hLnsPg5ZCC6lZQSDYjRgiCyIiD93cSSYjt4udCxHZJxk1c/5Xo5pFWk5IvKZJ2xNbGvOWBY69v/5Kebnx9+5flgWNhfUbMCLw/n03PY4y59RPurpo0RAv6icvzCmbGrD/yZMTyFL1ctPPYg8mllyd30UKMP9dbF96dT0lO0+4sbVgtR/euscoUJic9Na+8ong/OzuPYl01rfpjWMpE0kcOxssWVkgghJWvgozce7ypwGA69Njecc6s232l2/3hTBqTMmGNGEqMaYMWPXLMvaSX+Gijd/6WRRvRVPTI4Xh5mgE/9dc3M463J4xpuj2/d7msN/PXyFfDuBQVtlsFpmjKFMCCg9ZSMG/ZETwlOS1+wSQyjcBMovvvPNYw6W75NRgucm+OL7w7h8IF/YGUaf3us1USZHPbyAcgPKPWCviCAYI7kEUwAInKWY3VzCoTKYxsldU2tF3ZKJGMdqM4+x+f+CXPyN1sL5YyBbrOmZk5zOqchCQnLIhxTU+M5AxufNMTqYviG26kCMY9vpwwfbaYQvIZMTIQREYcvL+TjEuPLCLg06ZEcx5mLkRsV9S4G+pHCSY8LlOm/62cMRpN2uQ0o9H0v5UzYSZhZs+hcLOvzuJ+fykd0Q6FD1tLOZvGBO/aebxxyvMsNAfaV2dZ6LyYilImbjlnKzkpzIXVD4YSVrG1GM+vr01OE4Qhgj6h6RrbFnsR0VIjexdzqEaUZ2+QQAgrN7Igi7t3J8aIGblVL3q+zFqt9nGrfdr1p5PZFYmMzr4vG7ZbUrvzyB2Lr+tC7t4rI/N9N0S3RGKswMIS+2CKpkwEcPADIcFTkFPEK5hEphGYSXT/nccbp/902RH9xq32CZvH9vo3SJlYN4m1iy1w2ygGICyjwpjJGYBCAV90gOCHMpEBSFTOaqymUyZiGIk1u4voswWUSE7T7Tp68Unf4OSix7ts/fSqau2NeSzUHBOQ5IRRhWt6ciSnWcQ3PZG6SGZMUWhLjBgRCGIjDtbfScalLYUDHz8XIrYralwRf9kmX0XEKClZU2ytMgUGS9lVpsBgaZhRaWZ0X/wp+ITmlpW7yoRLmbgP5zhPRHaWNkyxq08o9IRWmQ7WjQRCp9mYDjeF3nEKe7LCfdKzRrgJUz40HOJSJoI+nFuEoqS/0Ma9N/qzN0gghJWvgizu3kIj6vZc6fZMNxzZQxuXkxoho7NjDKccgZNu/n1ofuB1y8jS2yqGFdxBJYLrGAdTayAwUwwc7EAoMtDGK5hEphGYiVaZsO6PVpkWnhxjVpn45IFVJm4YiZHrzXbbyAcgPKNIDAwFfP58N4zJEQxAonJWY3XCpEza5LTNpkTIZOi9tfRfKludrs4a9PMhYhE7wD4xRKtMHfTOF5IcoulFIjmKXXzTE6mLKuNm7cEAyJcTps9GUWhLjCgdBJERB+/vJOPS5cJ2SXMhYruixo2RWL21akhnVPylTLk/ZQYGS//vv5UB/LtMf9q76w9mmAxZJx+MBDjvMuFWmZh9t+2X8zIyUszlD0aWB24UhL/LZNy5t7rZshJ8lyk581jL/GzPzQMZu1L3nXs26eu+mItm8PrsU22Lts7rv2RmpGT9eqvfa2k4it5loj/6w0+trr7zezN3pu4y7CSdg8dUTk9O2bWTeZdptCE/LWNnyq5k9M4V+24VT59gEyS2STw2kXt79CkTCQQCyKLujTGiznztw+J0QzHasWDIOnl3cHntVabkNF3Gb63O7z5H23HmrIiQUbhdlngdy2BqScwUTZlwzBQbaOMUTCLTCMwkuht6bcBjaTm7JyVNl/ZLVcvw2ytF9GsGyA11Wdd6l6YeFP+Ukhpy23WQTSInodqaCGyq2yJ3w8Qu4jYHEqOIAZ80QEQ6ABHloHeZhAOiaBhZ0wSxVmFTKaHPOd0y2n7z18yUdF1K7omWWVfHBXrnC2EuwVCoq+7ALqMhq7xhxP+FeZeJJIc07JJ21iQTTE+kLgpuuJGCIIcUVOWm0KYakTiRw4MgMuLgRxCScQntkuZCxHZFjRtr7rlV+khkVCymTFJ+TfX//luJQRYxI9Dz8E7rF4/H65t4f597Yh5mlWn1yKzvS27npxbOiXm5NS3Dbo/XP/Wp5W5baDUJTcGPX3s7Obv0bdE12/Ow0hw61E635+TNjkn70rclz/zAq+sH6EPbghoaDlS+mpzz/bW88ldwlk+aS+083jjzHf3AC/vxOx4eRrsQDQR9MCCQhBPKeft9pYBP+h1hEgihU5jCQBZ1b6wR9/xyuesPh8/pcI59fF7/ciZ4XKF4LNbnXOhdmWAOgSAgsH4MWQlbBSaasmOZKQ4OhpliKZM2PsEkMi0K999dVvdu0uYOeNzzg631RcEDOeknF3rz4Vv9k57vy4Ef/uXNeHGOZR1crBMB2dw28gFIR2AUPuCTBwhS7EXICN2cLAcbqxNplUkiVWSjRHJ6+uFbb0bdHj86MW9muP1c6LRecsQO9Dy6/9ay5PF6LZ13QifmkeXg5x6ESE4yPZG6dHCLTwrJZ8TIQBAZcQj+TjQu3n+T8XMhYrvixt34eZFEp4v9alLypS04/qH8dPVy4Mff//xL+miT00RSps5z5hiHPrno8Yhr2eXmfOY6KtJot9x0+vLCyprg//3Pv8uBH+WnqzcKZNq95TKiLvvaB/dE3f4NP/iBQSPmwJSVTgDmRnFeVjOBkpEiIJvbyhq7Iu0F1JcRAdkoES+unYjU3XZGJJEtEY0ro7NLFxWjKZOUDvzffyuZT1jlEDPo1122JgMJ04fE4Fgq54WVrddfTiMac2+Ou/quR33wQ6RoxByYcjINwISQkpgIyOa2csauxIQ60oi6VfVlo4ScEXgjKZGI1N12RiSRLRGNuyWRIb5Tpi2BLPEahbAio00BTABTRgRA1OYgAG67OTjHUStAiTgyFklVMCIJGSiPDoE4Tpmi6zDcJUQAwooQk6hLAMyooRPeCGAKMYGSjUAAmLYRqMa1TKBEXJuPUR6MmABGjKkuQMq0kSvdpEXSGCuHsCKjTwKYAKaMCICozUEA3HZzcI6jVoAScWQskqpgRBIyUB4dApAyQcqUBmElOufB3gVgYmGJrhDAjA43uCtSBIBpkSKW8PWBEglgYjBiAhgxproAKROkTJAyyckBiNEyBjgAU0YwQZQIAsA0EXC251dAiQSwOxgxAYwYU12QmjJJrAfVAAFAABAABAABQAAQAAQAAUAAENiGCPxHrj6bMs1yiQI5ciEARpELSUXSDgATwJQRARC1OQiA224OznHUClAijoxFUhWMSEIGyqNDQCKjIGXaER2+cXGXRBLERV+2XEkAU0YTAJgyggmiRBAApomAsz2/AkokgN3BiAlgxJjqgkRGQcoEKVMiIyCjT0r0KBlbTGBRAGYCGzemugZMiylzxIIyQIlYsMI6dQAjrhNAuJ2HgERGQcqUyAmDRBLwqAP/YhEAMLGwRFcIYEaHG9wVKQLAtEgRS/j6QIkEMDEYMQGMGFNdkMgoSJkgZUpkBGT0SYkeJWOLCSwKwExg48ZU14BpMWWOWFAGKBELVlinDmDEdQIIt/MQkMgoSJkSOWGQSAIedeBfLAIAJhaW6AoBzOhwg7siRUDINE31R4//L//KD6/1SYFaFalAqB/vCAgpEe892ob6gxG3odE3tMsSGQUpE6RMciJAKbTmk/X1F4tTlIk2F5HoURvq1QkjHMBMGFPGeEeETNNUf3RbmvJViRagYtwQsaOekBKxoxtoIhEBMKJEoKCaRAQkMmqNlMmUmX3oaEVhcdmarUpsb005UEGIgDLr9P3uKbtnxe2a639146BBrUjaQSmMNb0r/pUfzGfZ/7WzWs+7V2gUKrX2vee7lzNjoFT5t0cDPRdTefdK+ZdSaEuezTvenFErgvMPSpl9+fOK19F2XJNoMxI+mBkV93tsjqVvS27XUOv1fF2wv5rKnoXJliJ4ep0klorzwRStLIWKW1yHJYNnYeTt7UMpyEOxH0qhO/nG6wugVY5lb//FlM12E0wEUOjPdAYYlZBWgRU2GlBKU9GND9bF777ZN8ckUJpUX733QtPnWefSt0XX3Ofnl3K0wV6rzFWNH2yOpa8eFNmuH9CH0MDhSUeqb0hD//clt2u4ra6ArU9AG/vbANiUiaQ5VkNKU9nm+s7GXtqUo1d3E42+yoT0qjc2d8d5syIUMINfCcojbZeE8GrTZIi4dTYaB2VWZWOvbW5xxeOeH2y9xoZNekRTmy8PzFpaDoViKSrEMZAiM5bbF9J11MFHRuellDl1QyufrwmYIMFMwmGX1NMELucZkcR/Et+w9aXMqXiQkuRj52y8e7n/YvVRJO0glXPv5V7j/SXyeIVtNwq/w8uJUB9xu1AKTNzAxk8uUMJrHqOEFZgSsZRp788F+QePGneZIWUiwbcJ5ZSqoH7YN9lxvdCUathX1TTis7dXpzJrOGq9RmvQaDOLG8ZsltaTJv6YLSSB9lSnfcI66h67YQ5WljdlQoOc2qDT8jXZBKA2ugkumJTSeLZjcbb37qHMVL254vHI8vijYhU9DYKUSYohuGBKqR/Ldbhk0GWduD/om3p6nH2IgNGcdlvtwabRxS1ImTARQKGv7PKPNRZrUTAxaLR6FR1eKKW56q1zdvRNzfX3NvvaKROpPqU6cGtkeezluX2phpT9Na1W/x+3DygVKkqZe2Nw2dpWuz/doMs+1Tjsm36GcCPhGYxUNSaVWm/IPfd8IvCloVDJyz0EM04h04QpE1Fzkoaayrb5ueZjKQxcGRf6nDOvS0J5IMbitFaU0nTytdPRc3l3+Aq8sJyIDKFdEsIkTUjlG40DpTTX9vkm23/PM2g1WRWPRnzWpqNM2EQqmS6+tU02Hlp98EfUh8BYUr945UJK8CqI/SuT80LKJAaywIuFlblGJPGfxDdSfdTKWnMqriZk+eQ5G65rJH1I5VwduNdEfyHEDe693GtSu1SEfkeUE6E+SDcRu2DiBn5k4fZReM1llPBbtkQsZUo3ZSUp1fqdRkiZWLy24CLn/vDi6iNMTUWnw/muLLSGQylSCuqHbZY35RmYLIVHAvrplNP28srtId+H2kzmSSc9EVnpa27onFjyLPmsPQ+OpIZEZVTc655xLP65GP5MV5N3pXXU7V5anu5/8bAjuMpEKfSn3/mZZ9XesUd5oX0vjPz+ly3do/YZp2e8+16RISQfFz62AGFpanDBpNRHGq3+jmoD83A0/fjdx5dLtJAySUNS+OxftffS82HXgu+7z+e3jXTU5CNg0cd08nbXpN3zddG9MNJ+8yC9qqAqeTU5NfCqwzI59elxQ1uvZW646aSBnoZi5VCqwgeWlffnGWNpjzydc7ZXaRQqEWZq8q+1ffF4lvy24TfN7132V6dEUiAeGXQFVZfK8zXMVB6nP9M1ZV7jiDBlwtWndCUNY74vj45qUTqRfaHHY+u4kKFUKfMaRjzW23kaRqC2/J3N0VVhCC3U4GyBjwAKfXV3YPR+AS/9oJR7T9acMWtU6hNt0lImfH1KW1r3urkiE3k9pdAWPra7uy4i/NUnnsy4nh/XMk6Ufcuy0FNrQOVhzsXiGUyZ6PVwSqEteGRb6DwfxBnXWQYWrtsyJbiUiaA5SUNVXkV9/XF6WYlS5lzrXx69f5CHHtMW+5dSqA1lbVPOgUuhZ1XMV9hyIjKEdkkIs61LvCBZPFJ9SM1RmtOv5+yPi4IWN14Zdg/cYhJISpl+8pV9pKGYa1CiPgTGktrllXMpEUVwUCTtwDqvcvfZxl47Wkp1zw++upLHptC4YZSbMlEKQ8ED67zlaXB5zVR2u2vK5vLNO+29zefModVd7LDL69r2+TfMiKQIQ+CbuL+Iz6m4CBP5LDpn40pgrkn6kMqFEoJyCBGbIsSNoBzT+Tc2v3PwPrtXmdQuJe530uWI60MI5li74OMGIW6TcGPKuYwSqSmWMjG3QcokAt9mfLXvwR+Lw7+HVpA0J9/ap14cCoVR1aFnVt/K5MeXV49nrz6uC3GORwJKXdQw7uuoNhU12Z0d53T0rI6ZONp77xSlazVZp5vHApbGIhWanJmqOpdQeUaKLqvs4XDwiSClzLrU57d1XcszaHU5NS8nAk52Yx79JMBYO+AWpEy2jktZahWlP/JgNDB6jz852wwYQ5hE3RYXTEpd8nhy+W3l6gNRViysMrFQiFyEganQnXjldnRf26vTKHR7Kx5+eFdfghioSK1oW7B11xek6zRZp59YAiP0tF5V8mrK1npUYzj5ZuHzjWxV9t1BV88ZrYoiyRFNmYTMpJRZtX1+W8flvTqNxlzVYlmZXSNlwpOBpD8Di3DWJVJfc/DR8PxkQ6Fh94U+u62zwkinH8qsS72+yaelKP1QGqs6l6ZaTnBnnEL88RFAkXK+Z8X64f2naZ/b4xnrust7qCExZWKbE6lPKfddH/CN3KVXmRTafVf7x/qby8ypxiO3Oi2WhhK0PZjkXGzKRCnUOvPZpxZP79Uc/g43gZtzmcZoKEyZSJpTBA3Z+oqkHarCZot76HLWWo+BDOUtU0sfr+YqFfqswhP5GShtQB9c+Xra5SLM1TOia54F16MPt120odFpe1iYnld9t/ZoVmrtgHvorpl+2KEteT4+bx8ampm2O4be3j2SHoanQJ81GMttVHjNpYR4yiQMDow0jPMqTdVdXlt3XYFRrzWfabb4R+6iYY48jK5uzNMWNY26rPcL6Wc6SlNlp8fWUWvWqpTGE01jvv66PAWSQx52BZwXdjnxSrhG5PaOy38RvrG3cOszheJzKvZGFKlIfBads3ElCK+F+jB1SOVCCWg7H/khFyZepVQ8HrSPvru6N/SYmyuT2y4lPlJIlsOVj9GHwGesXbBxQ0q84urAXJMYxasJKRP+lQMeTFv4L6UuemDxW15WmbVqpfHY7X7PeNPR1WfeqQdKTp45e6N9xOVoOZHC05NPgr13hzyjV7PUmvJOx2zbcfoxGJMy9daaUFxWaPY/mHJ3X9KhZ72lzdPettMoK0BzlLxTlaX70LYZdWnTDFuuLX25MMemTDTXdRf7hSnTh0tGWo62uMXpbDu7qj/BPXgdiYV/uWCSZnWKpB2QMkkxVhiYCrTyMz/ccqowJ4WwpZNSMMypVCtUaJXJ2lKk1pY8c/TUmhSmG33uT+d0KoogR3xWJGQmpS5+bPW/o/NhSqE9+mLNVSYmZTLoqntmXb55l8/RfcXI23zF0Z/BRzjr4uLG7S/jOLn1o46xof5Zx4sy5KpMZV35O9vc+1MGlSLzWu/C1P0DwRUnrqiwa2wEUKSebXNO9twvMmo1mRVNY/6xh2Eb3kQG4DDhIV8m1acUKUX3xuxjLcXsO0iG4pt9ngW7fdLlG312NpN+EhRyLj6edKT60+f7uuj95vN/n+u/V8B56QWriXA9E3ko+fgHjOY4Ddm2KEXKydcLjnfnDCGLsF9xLyhF6rFns87+Ozmq4NpmKN7iy9G9UbWLQThkFK4+a15vFA7BKWb+9X7v9LMyUyhlopQ5V/u9lpfVoTFuyd5exawbM6ry9KHWYqx4B8OCj+jzFGFwYCQLnTd8uGSG0RqxYZR9l0lX+njcO3S3kBkT0fA67Wkt19Fer8m7P+nuDsoRH3bFu5x433KNyPaOx/9QSsPnG6l+sBw3p1IVtVh96AVU/8oP3+KHs8zcicRn8pwNK2cNfdAETBA5Rf2a5y9c+VLiFbc+N2JH7Xck/SXGT5JdxOKGaPxkO8i9wDKKW4G5hpQp1lMmNMbn1j79bLPZ7MNDM47ZnqrQihNrTkqhL3vttr2s4KUiXBJQCrXx8qB7vPmAWqUwXvngmW06RG+Q4Bz/QCk0++5a3T2/07H+xBPb4hs6drMNoTiuXi3HvoeKS5mCx0swk1pmWxRXZlxch4EJq0yiIXtNg3LBRJVTj155OTA6s+TxLk8PttfkM4m6IffCm77xuekpx+SUw7bwdZ7eUEdKmYhyxGZFGGZGmzLpFbqM3Vk5hxqt7v46k1JFKfD6M+BgZl2i9RWpFztc371fGnM5zwIpdXHjhK/3cvbem2OugdvMA3sS+KQIwK1PKTR5oYcmbDlpAGYr8C6w9eltFX/Yp7urzcEFFkqVd/Xz/MDD4+kqlUJfcKlrztJ8go48oVU7Hp6cSKVKL77+wW1rPasXzVXWmTKRNFztr+lyj2vuyTHMavNqnaQdiowbfR7bw0I23q4wKROpPLp2hQiH6RCJw/IsGJ0+wtaDU9iDNA4KdUooZVLsrv/s4eykKHtrd7RzDxDi6cOVjGUst4Lwmht8RJ+nYIIDIw3jvGHDooRhFKVMdP7v++ab7z4d2k9LD69fF2ZRxJucckzNeuxvL6AduWHy+acuCfueTOm7AAAKHElEQVSY8CVcIzKdFfKfyDfaF4T1uaCR5lRhdZiUSchnCXM2rhyS/uLlQglsCdFfJMYrSfhgRgpWAe6FGM6R6MPIDLMLIW6sHa9wwVDIKG4v2GtImeIgZQpyRZlT2+tk96JQhuNXm+8eozcwoGfhz+fnBKs3XBJQitTKTp/Pu7Lg9i+4/R7ft1FmewyaiASH8ODw07PGKlNzxKtMxLGHJWLsX4SBGf66BbzLFKn5uGCG3avPv9DhWui5jA6pz7zx0WNrOppOr3+uvoMkljKxoZAjh1IV3B1b6alJZ5Zrjj4PvX3HmYJzk3lKmVXz0W/rvJJr0Omyq1osgbU25nHfvdHk3LG6+66iA1oI+jP9Fc66ROpTSlPZS8dsb2ub1dOLNncFV5nQYUE3Rl1/vH095u2+EHw7MQxPFhD0qJIQARRanTFTT78eGZqAogfbrBziAMwRzlbGbguhFIYDdUO26Z7ze4P5EqqffXfQM1CTGmxIVdpqs7UeVfPeZVrFk92Yx7SlOfXeOfV8zaMphUyLYJWJoCGjAKXQ5Nwe566or4KgNmi4y4zmO/3eP90LaAVy3uXz+EIpE6k88nbxCBMMtKonoQLf4pHrE2wiHAfSux/IF5ZGr9Jvu6FHhGgTxJvS0OZzIaMoAmMppTF7f7ZWodJmFWSnqil1Zk6emfcYkZdFRxocmH4JnXcdq0xHGy2+0UdHg/vk0SqT+2UZWmXifpB80WGXW3k7XPP8Gst/Et/ogQATkaTMqbjYishnqlHhczbuvbxrrP4kPXn3Cv/l+y/NJbF4FU42UrskvxMqwJaQ+kU3ITV+kuxCjBui8YrVjXfBYxTvW/ZfsZQpSalOUmkMKabC4rIklSZJJbbrQ2J7bMNwEREClEJjvjJgG3m4PzSQUOqjj62+P5pOm/V6w/7L7Tb0sJndscMI5xqF0p5+5VhqO4M271EKTX7DjLu/freS2Sjydbb3zsFUrWb3qaaxwPijQ6vvMvXcKjTpdbtPNAz5rM3odCPupmpt9oWX1hXmXSZKoVZp0Al+6F0mS1OBzqDR6lRB+QmXMq2emJeiyyp/NLI8/phzYt7Ui2I9c/gYAkHJnTwJYlNENEiYymHMVGZVv7a8v3fCpFUrtNkVr+eYYwAUWfWfF23NpWgfmjqz4vGIX3yViSLIoRSGstcLc5/uFqbrdftq3kz7Pl5BnsKdgnNTJjRpCx1wMjPY2tS1sMbxDzQZ7B9uF5oMuqxTzWP+4GEABP2DRtxd/3nJ1lyaqUOH1NEkIdRHq0NnumbmPtdkafQnWq2u0bo8TuKRfrFj/pt3rrOC3e1G4BgxAijNNb0+6+tzew06bRbamMe8bUgp1Erao3Xlb22zbWUGg0ar5UUYLiFJ9SmFIe/6gM3WV5ufSh8xZ9BokBzKUNU25+1/eHpvil5jOlLbOe+mF8qYE/OEeAbthU7M02pNxZffLyx8vJqxlnNxmcZoK0yZiJoTNGTkUJrS5qnlj1cE50Sbajqc39yjj9B6PjNZUaakZ2XvZj7mE48toUdUpPII2yUhHGxde7bV+d3ZVRM8Z5VAD3pcwFucZKnIcWBOzKvNNWg1u8sb/wiNKerixvHA5LtrhaYUw77KphHf9ItytLRCYCBFYCx622FpqDbDfLl/xdpUojvZ7vB8rBLs3uRSIorggHotcF6KeZep63p+OhMElkfuMMdC0q8EY4bR1XeZNIVNo25bUwk9NKNXiD3W11W7NSqFLr/m9Wh3HTpZhDTsMibYhn95RsRHmOAJjQK+kSKShDkVF+rQiXl8+Uwd4ZyNey/3muS/pHLuvdxrkr8wdYjxKqW8ccA2+vZKdmj/Aqldkt8FdZAsZw19hPGTYBe0yQIbN0TjJxcx7jWXUdxy3rVYynSgqPRI6WnuJ0kZ9lImV5bE9ri3wLV0BJR7b3502ptKwnaA6PKvvhx0urx/epy2nsazu0OMZ8VyjaI68mLS1VsV+h0YVeHTCfenC6lqeiKy8qnlcbfV6/b6rD0NxeyJeZmhnx7yLIy01xeGTrpT515+Pepxe/22wVePO13M7zLROwfCf6tk2fmkRCsyMWX1jIsLLphI4dBPx3g9C39wfiJGU9nj9gc3PaMfbPFNr/2GCXkSExfIRKEkF0x0aFjJ/Q6Lx4NOzAvYRrtqgxvzUgtvfBid8807XRP9rQ/a7MyWTtIqE0kOUs94/Nb7GcfSt8WFub4nwUOopDCTUqC39cRTJi4ZlpjDsuhZGqXA68/ARSlNRxuGZjzffP6/GJIQ62fWvJv1vL9Ip3nK9NLns66RxgOh87goJZogTj0tFT5N59mFFAHQGQbmqqa+0GFfr6/mMfqjDY3od5DYz7IXvTPGE8v+S+9xwtSncQ4r91qfFKjRhDjlyJ22Yef80rclj/tLz5OK0J491rnC8ESrgkjOsv+7z+u1fn5xmq1P9iAu0xhVMSkToadiGibtMJzpdji7T4ciKouDwni+zRZwDtxlTw1d/SppBxNvgxvzOGpzyyNtl4Qw0y6yu2/+2fHQKZScRrmKoZRp43FQZlU++mh3Ln31LDgHXq/+LpN677mmXptjEZX3v7y6fy0GYhmr3N8wPNtTmWqq6nQP3SnQHHpqsbWXhTyF7SyfEpEHB6HzomP0QifmBUnLtosbRsNPzNMfuDc+b311lNmeZyq/122zu1c87oXRjnvFoZMwsMMu26ntdsE1ogj/sXwTqb/mnIqHM1Y+Uwc7Z+PdzvxL0odUjhUi4r9MfWK8Ml1os684hx7ks494QpGWjfxMxCaNFEF9IpGjiDB+kuyCjxsiIws5+nEZRUJYkbRDLGUSuU34lcT2hDdCycYhAEaREVsAc/uAyS6ZatOLbg8GJkJLiDIiIJsoc/1n99S9fLEtALK1RR5vYrYJodtqqj966Ica7DwgZpVfv2LB11M5v12+fpnxLkFIiXjv0TbUH4y4DY2+oV2WyChImcJ2DG+oSTZfuEQSbL5i8dgigCmj1WIcTEpd9mz2+3KAXvUafMH8ppCM3ZdLFKXQ5N6zLvTXix/8IFdz8Sgnxpm20ZCiRcjP3r6r/D3bG91uLMvf5pSIZdNI1w2MKB0rqCkFAYmMgpQJUqZERkCKq0isI9GjJErb5tUAzG1OgE3rPjBt06COl4aAEvFiKRE9wYgi4MBXUSAgkVGQMiVywiCRBFHQaxveAmDKaHQAU0YwQZQIAsA0EXC251dAiQSwOxgxAYwYU12QyChImSBlSmQEZPRJiR4lY4sJLArATGDjxlTXgGkxZY5YUAYoEQtWWKcOYMR1Agi38xCQyChImRI5YZBIAh514F8sAgAmFpboCgHM6HCDuyJFAJgWKWIJXx8okQAmBiMmgBFjqgsSGfUfU6YZPoAAIAAIAAKAACAACAACgAAgAAhsQwSkpHCyrTJJaQzqAAKAACAACAACgAAgAAgAAoAAIBBfCPw/ZHruPxl0pEoAAAAASUVORK5CYII=;" vertex="1" parent="4">
                    <mxGeometry width="1126" height="54" as="geometry"/>
                </mxCell>
                <mxCell id="3" value="" style="shape=image;verticalLabelPosition=bottom;labelBackgroundColor=default;verticalAlign=top;aspect=fixed;imageAspect=0;image=data:image/png,iVBORw0KGgoAAAANSUhEUgAABGYAAAA2CAIAAAAK6ghAAAAAAXNSR0IArs4c6QAAIABJREFUeAHtXelbE9f371/S71B9CERWsYqt0iYUBEGWKm5V6lK32qqt1h0VwmYAWQIBwpawJYSEECAhewD9vu3TV/0fvm9/f8HvuTPJMJm5d0JwDMl4nicvJjd3zj3zOZ9z7j1zl3zx5X++gg8gAAgAAoAAIAAIAAKAACAACAACgAAWgS+wpVAICAACgAAgAAgAAoAAIAAIAAKAACDw5X++gpQJJtkAAUAAEAAEAAFAABAABAABQAAQICIAKRMRGkipAQFAABAABAABQAAQAAQAAUAAEICUCVImQAAQAAQAAUAAEAAEAAFAABAABIgIfJGXf1CSz5f/+SozKw8+KYUAGEVCcwCYAKaECICo5CAAbpscnGXZCpBHBmYFI8rAiKnzCJAyyTnNg2AhoacBmACmhAiAqOQgAG6bHJxl2QqQRwZmBSPKwIip8wiQMkHKJGcEJPQ0iLwApoQIgKjkIABumxycZdkKkEcGZgUjysCIqfMIkDLJOWGAYCGhpwGYAKaECICo5CAAbpscnGXZCpBHBmYFI8rAiKnzCJAyQcokZwQk9DSIvACmhAiAqOQgAG6bHJxl2QqQRwZmBSPKwIip8wiQMsk5YYBgIaGnAZgApoQIgKjkIABumxycZdkKkEcGZgUjysCIqfMIyU6Zzl5o9Ac//P3PvyIff/DD2QuNqYNR+mrCCxYA/seYEsD8GPR49wKYPEDg6ydCAJj2iYD9HMQCeWRgZTCiDIyYOo+Q7JTJH3xfdqK6tOxkadnJv//5FwtEdU2DP/ge+1P6FxYU19293VhdkJ2M2S1esPjswf8ozAFMCb0PwJQQTBAlgkC6MU2qDkIqOR8VM0XskhY/pRt5EjWWVCSRSk6i+u+ofrKMmNIgpIW7pYWSyU6Z/v7nXyZfEkmZMrPySNmU1JgWVr5cXtKcV+72H6WU9Z12W2vVgR25LlI+u+TqYNC31H4qB3vLx+rDw4cXLFIMfCwCe1P489UbP1+9wUOP9zW9wEyYmbt1AR5KmVl56QNmXHc7WKfx+EMfAqEPAa/+UuHekFOIMJQwCKQP00jMETAwTgfBl0N08wTlfIaMSmnyKH+4Oxl413j409olQZKkINmSb8S9AoHYrnQd96clW5roGZdRkDIlN2XKystUHsrLzSewU9CDCnh29JhKeC+2MDMrL71G+cLnSk7Jyep6u8NpdzhPVteLtJheYO5VhE0rMOO7m0J5UJlblPPDk8l1SJn443URZ0nCT2nFNBJ0OAaKdRB8OWJunoicJNgrpZpIdfIkJ2WKMxpJdbLtiRH3yuPE2hWMElPK19JImZ0wKkVTprITp/hAoyAS0r961mmwmJfds/1/nSxiEo/C6lcr9v7WFwMz04su62TXz6oi5t6sI+f/7Lc6PJueteWRNzdKciMhQPndjebJNZfHbx5+/WenMzLLpKx4MB3s+ukQfW9hxfOl5faLzOyT4nDDvR6LfX3D43KOtt5R5yM5yh+1y0H69TPzEjr0wWO4Xyy23O7gmc4A88baa3xcotyOR3h9CG4wNjV369cHXHBu/fpgbGqOW8JeSzjKx4KQmZWHBTn7ZPO8eeR1p3F+fvCvP9p7TUujT87kZ+dlEo2Yp/j6zG9dczb3hse1MtZ+t5QGma4f1L952T1htSy7pnselBcgo2d993DcPXv3uwLmSXN+7Fxc6vqxYBtSFoG4F98cU89brA7nqsO5Om+xfnNMTbplr8DMJDETgYkBh8xMvKekNZhEphGYiTwX6/5ZeYpDp3/rml9c9TmXF/ufXTrKmTrO+v6vCUiZCBGJ5C+ftHwP3JYYu/BulUlmFIGBxA4CG3vJbk6Ug43VpBj7Sc23t8L3gDxZeVnHrjYZnKu+935/wDr+tpEZpYjG9oFnD9/OrLu93pl3f1YURl6z4uVk5WFJkplFIieBJASSpyDZkm/EREEQ6ZtIfQ3WuOR28aMmYrsE4+6tM6ZO6ztkVGqlTCXfHAqM1/0vdDEwXlfyDZO9RMfByN5hW9cvxTl5mXknfh3xzz45lYV68cLqV6vr000nCvIys49UPreujdw7mp2XmX30QpfH2nNHXVSUc/T8U5N//F45qp997OcBv7XrVklBYc7xK69nAw5mYR4peGUfPaddt/XdKz98KLf49J9j3tknp7KRnAJlTlHeGa3d1l5bUHQgt0h5IDKCJ5FAcQC9sT54ZdjFTZlI+hAGKIeOHJuasbJZ061fH0zNWA8dOYZtVLJRPhEEPMjIaa2akzlFdZqVwZslWd/eH1ntbchlUiasEQ//2Lqy0HNXXXTwQPG559OBifu0sWijWzuvHjmQl5lf9WAyMM6UZx9r7PPOPa9DOW32kXPa9fkX9bteXYmFTli4V2CKpkxhHDgkZpI8JY3BJDItUfdHDHcvdF47mpuXdejHv6a8+juliqgPQsokdId0KZHMbRPvgPCMIgd8QgeRcAdEkoPvEEkxNkr+dDH0p9BTMvJkHTzVvGbvufVtXoEi97vTD/s6f6VHEaRRB0O2vntlRYXK4nNPjQHTo5P0aIcgh9RBk0ZHWXl4kpBITh7t4OWQwu9ekE0yIyYIgkjfhI8MJJIQ28WPmojtkowLnp4IAqmVMvnHajv+/CE/v6Djzx/8Y7UxQRDZO9h/9Sg9jikoeTDv6vslDz0q/R5Fc44ZMWdXvTbOvkGbiw7UPrF42hoO0kIKvntgXuu5mpOVl3mg7ul2Obo3zixTjJz83O/PnqtWsaPzXcyW5jXqY1Imkj5kK7JZk3i+JOXCPBIIMeXbICOnnWsqUxZWvrS/u1Ks+PrOgGvwYh6TMmGNGE2MaYNWvHAst9FTfLTRe38+QhuxsOKFw9F2gQE/98e3i47u0wV5isO3+lbN99Vx8tUYLpGxFakmWeSNAY3DqJjybTBFU6YgFhw0l4LZZUfwlKy89AWTyDQSmCR3O1D71OJq/jESLkruz631XEHhgv5AyiTiFyn+k2Rum3gHhGcUiYFRsgk6CG5HxgkXdH2cm0dIKyqHG15Qx0oKIylu3E+tnmTkyULrVpyGl6d/+L6AuyxfLGUK9l0pZkY726MXkpyYcMclCTHmM9DxSUIkOSJVmpJNOiMmBoJI34SPDCTjxvN02pRodMSMmojtihr3U7uSbOSnVsr0v9DFgoLCzKy8goLC/4UuxqDMjJ6jQeT4vVlX/418RCYUFGzNZ9k0JnLXgfrnC+6W6Bjo+L3Ztd7ruShl4pZzlpKTgldM/UhvxComEkTYOrwLfpCKkc/RJ9qD8m5nvjJZk8j8ElNNsmARoyQHhJjyAhZkcaftxRixqORyq256yWy2z5nt1tUNJ7MqEhmd3QUbs1oy80DVw1lf37WSb+8YV4Z/F10SyVFYgOoOZ2MlzT+5DOToRgBTNGUigIPv3giegpwiXcEkMo0EZkw5x90O1D+3bqzaEf3mzPZ5m9vW8TOkTNjgkwqFe+C2u+iAsIwiMTAamkQ7CE64oOuLdECicrZjNb0wjxhGUsHWkuuwB+TJylMcrLn+enjcsu72+s0j7ZfjL8xjjcIxFklODKm4JCHHfJo/fJIQSY5kphTZ9sSICYEg1jdhIwPJuERPx4+aiO2KGldyL0s7gTtkVGqlTMHxOnaWKTheFwM6be+B699E3rv8YebOMuFSJu7LOc5LtQN1TxfY2ScUUKKzTOX3jMHoGTWFJ5uie5yI72/iBJEY5aPdYWZWHj9IkfTh3IIVdejIMdJ6PLa+dCkTF0zOS6wYcLZBFndaoREVh+8MuK1Pqw7TxuWkRsjobM/BKUfg5BffmlgZ62g2erovM6zgdhUJXO9kz5+kKVNiYGYqCcwUAwfbvYl0n+kKJpFpBGaiSWas+6NZprXXtcwsE588MMvEhpTUuUi22ybeAeEZRWJgNOALOghCuKDrJzKK5crZjtWfYcqUmZWXbPJEjYt2uOX/cKnTudr7C/qjEbHYHmTfLaJZpnf0GhmSnJhwx+mgSS+Uo3L4ZCOSPM5ohy8nRp9PRbY9MeLOPU6kb8JHhqhR+CShy4XtkkZNxHZFjZs6gX0PNdkJo1IrZSr55lBwvO7//nspiN/LtGEfeFBeVKg80vDEGOTsZcLNMjGrabtuf19UlFN89onRP/Z7WexepoID3za+mg1F9jJlHaptXlnS3S8tOph7/EqLxTdwvQSN4LOPnteu23p/++FQUc6RH/8weGef1qC9TPQn++Qb8+rw1W8PHcg9qDxAOgePqZyflXPwALOXyfRUnVd0IOdgFtpzxe6t4unDH7ftgkmSpUwkEAggizotxoiK4ruD69an1WgdgvJIw6Nxf/xZpqw8RdHPnc4tn0Nbz5wVETXKLoCKe7KklClTgmBmkpgpmjLhmCmSMqUrmESmEZhJdDe0GcA92/zT4Zw8Rd4Pl5snu+9U0JsHkBsqjtwd8iw8qf4mJzfqth9Btl3wE27BIpBUt0XuholdxGUOJEYRAz6pg0i0AyLKQXuZhB2iaBjBwi6PwqSSJ/vYhWZT1/0fD+XkK3JKTjcvrb67Rq+RIYw6GLL13Ss9WKA8cvapMTDN7GUiySH1KcSUiUASIslRGMT1KQQ5pPArNdmSakTikA8PgkjfhO9rSMYltEsaNRHbFTWuPJz6458iLqOSnTLt5N9U/++/lzBPjuwd1D172Dntdnt98/2PuSfmYWaZto/M2vK4nCPNnBPzSn5pnnS5vYGFkeZH2uhsEhqC19/ttix5NtdXl3TPLhVHD7VTHG64/85i92x63Ctj7b+V0oe2RTRUll5qtyz73vtD7yOjfNJY6kD988Ut9Acv7CfgeHYSrUJUEvTBgEASTijnpUw7AZ/0P8IkEKKnMMWALOq0WCMe/uF235TD53Q4Z/SaB22LkeMKxSNs9rFrQ6F55hAIAgIfjyErYa/AREN2LDPFwcEwUyxlykxPMIlM24X7f33mXo/F5gq6XSvjnQ8qIgdy0m8usotP/mGwuLf8wQ8BfzI2zrGsg4uPREAyt028A1IQGIUP+OQOghR7ETJCNyfLwcbqz3OWaYekkow8Wfn5J/94a3K5A+jEvMXJrivRc33JsT2oe/G4e9bj9npnex9GT8wjy8GPUggxn0QSIsnpMJieZJPOiImBINI3ESID0bh4T8/Cj5qI7Yob99OPoHbodCleLdkp09kLjf7gh7//+Zf0yczKE0mZeq8UpzigWRUvjav+VRfns/zuXB7tbEknJS9YxAX/73/+9Qc/nL3Q+KlApp1WKiMqjt4ddM3fU33ygx8YNFIOTEnpBGB+Ks5LaiZQMlEEJHNbSWNXok8B9fcEAcnIky5BQI4k/+yMSCKbHI2b/LCQ7JRpJ0/4f/+9xHxiKkftTW932ZsMJEYfEi9TqZwXLPZefymNWFByf251+LddH/yQKBopB6aUTAMwIaTIEwHJ3FbK2CVPqBONqKlfXzLySBmrPyV55Ejyz86IJLLJ0bjJjyEpmjIlHwhZtgjBQkKzApgApoQIgKjkIABumxycZdkKkEcGZgUjysCIqfMIqZgypQ466a4JBAsJLQhgApgSIgCikoMAuG1ycJZlK0AeGZgVjCgDI6bOI0DK9CmnuUkzpMkqh2AhoacBmACmhAiAqOQgAG6bHJxl2QqQRwZmBSPKwIip8wiQMkHKJGcEJPQ0iLwApoQIgKjkIABumxycZdkKkEcGZgUjysCIqfMIkDLJOWGAYCGhpwGYAKaECICo5CAAbpscnGXZCpBHBmYFI8rAiKnzCF98+Z+v4AMIAAKAACAACAACgAAgAAgAAoAAIIBF4AupsrfCQ8UZag18UgoBMIqE5gAwAUwJEQBRyUEA3DY5OMuyFSCPDMwKRpSBEVPnESBlknOaB8FCQk8DMAFMCREAUclBANw2OTjLshUgjwzMCkaUgRFT5xEgZYKUSc4ISOhpEHkBTAkRAFHJQQDcNjk4y7IVII8MzApGlIERU+cRIGWSc8IAwUJCTwMwAUwJEQBRyUEA3DY5OMuyFSCPDMwKRpSBEVPnESBlgpRJzghI6GkQeQFMCREAUclBANw2OTjLshUgjwzMCkaUgRFT5xEgZZJzwgDBQkJPAzABTAkRAFHJQUDotooHDnfgfSD0wbs4V17akhw1oJV0REBInnR8is9cZzDiZ04AaR8fUiZImaREgFJpjt6e/ONhX75abmMRiLwShh4AU0IwQZQIAkKmKR44XJbZMkiW4ITbeAgIySPCNPgpNREAI6amXdJUqzgp08VL1yemzPoRY9yzyIGXn44B++qHnoyu29c33S7fWO/EiUqU5FCqjhtjm4HQB+bjD2z1PWjl6SA0ClVtGFjf8lpm2BEDVdr9aH5D97Cdd+9OvlIqTW233zEwlKmKJEiUWntnatPrtJ4uk3vKVDv4xOBxeLc87sBE/0TZicjzKu7Z12xzlTAgEx2OCJm5E76lbh2WDOsB4+BUVRXxNQSlaj07EPIF0SyH3+f8pSrZboKJAKrWS/oNRiWkVXCTjQaUuqPq5ZLZ8963vFC/A0qT6mc2jL6a8jm9W+sun6HHUFIeeer9Z4ZfjCEnYiJbWUUUDRyedKTaQhoG3ntcgUndRDlbn0w2IdOwKRNJc6yGVJle60IWZD9+3+rdOqLRUbgmI0mpWo4+cS5Z5qqjMSRDrSEhhi2nyBZM1GVIemJxYIRj9ce2S8KNVC4iH9sniuCG1SduoZA8cW+J6iyZm1Nq7f3pTcNzbUa0k92hDvQggd9B7/xe2dTkGRHrQRlqzb56/Ysx77Jn0+32j/ePsx06tv5ORl88AEnySUzm3c5+xeqzC+aTPD3SUPXwW0ew9484rBPBIY782IhNimCkchYN4kWs/iJ60m6CicAkyWIp019PXnW87T934QqkTCT4klBOlfb8MRO26Ccqatpzzw03zYaXdMMFzBxOaauivE1R3lnTumY3W87W8PtsXrDIUGuy7y7are5pt+ve6cjoRNqUCfGvtE0ZHRIlAZ+kNcEFk1J3XNaHlsaM1bXtOacHm2bDc+19++kuDVKmnViEC+ZO6qdyHS4ZlPW6J6bwgnaAfYmA0Zx22+xLM9OePUiZMBFA1Xp5JDzb3peNgkmborx1Px1eKPXbxkH/0vzCjRc2+w5SJlJ9qrTn4Wx4tnfk++q2/AujnYvhqdc9+1QtlLrr3nTYrDOUVrcpzwy+mAlbuxFuJDwjkepRx/7S1txzI63WjRnNu33xxpFCpglTJqLmJA3L9No13+tfInB9/dDhtJtryUGPJD/CjZrRHof7xZXtF15ExEhIEiyI4V7sSIVXgaQnyVIk/Xli2a8oNcLhRionySf1iSTcWAUSvRCSJwEJErk5pEwJYI6jN9eIJIZQau3tiZBFZ1BXahT1gy/nwubO/v2qFlJ9pFK80RdXbRH5xNEd7llI+pDKuTpwr0meztSh1B1n+/wOg6F4J2uFcDiIy+dqEmmREMEoQrlQArcErz9Oz8hdggjMlca7FkuZzpy9nKUsKDtxClImHmpJ/XrWNOnZfoWp+NXmWF1siM7hUKr28qYVm2XhXG30BS3H07jBgn3nZHs39nA6PPi4k3lrRQ9ENke0pj5ryO0NmQ2mU9XR1Kt28PGox+HZWo99p6s4P9Y5H3R5wlaT+bk+MstEqVp/Ggoz76q95ml19J00I3+sd35gzru4GpobNVXRs2RJxZCDya7b5YJJlfa9WNzofdDGoFp4w9j0pD8bUqYd48wFM0Ot2d9gaJ0JrPne+/xh29zizYsIWPSp0T0ccS+tb627A0bd5Al6VmH/NbPF5uzQuyw2R1Ordcjim+zU5dLBHSuHKn331LI58EfEWKe0PqduWIG6w+5H85tYZioujmvNIbd3wzZjeTUasPcOiqRAPDIofxq+eadbwQzlcfozj7bv/LRJmDLh6lMn+p+ZwzMdiGCUWnvdELLpR75Wt+w7bzKuux+dj3hr9p1Fu9N2oRITB1jOM9PC/Aigar1i2DC1oDSGrYmIrdaefTR0tKwl86bVtqOUCV+fKh+43zd7gQ5QlEpT0eF1jYzS+Ove2AOtN5H+lKrl2CvXmsGQi+wS41wsnpGUiZ4Pp1Sa8g7vmn4kgjOZeDymZag1uJSJoHkpScOuC02Tp+sQXJRa+5spbGoRS95EkKTU7Wd7vUZNH/dBiIiRkCRYkGvNnVyT9KQIONCPj9Gf1BZViseNVE6UT+gTSbiR9IlbziXPLsIImrvAufm+OjSh4fRsrbv9431jajbZxnW43JSJUrWVa9wrlrlqZn4VhYt1uyu8surVa0e+jfa52A467sPKtUKMEUkeVDbUueJtamRikabo6YrLNFmsbhFnlPjoi4snRZCfQWAy917uNUkfUjn3Xu41ydPpUKzJvW1dWHXeOhPTHaDba0beLoWd0yZ2jRIjU4iDiHysHIoQwUjl3GfhXVMqov5CPYkRhtyhiKVMzGI8SJl4Jkn213OmKc/KnegMkuK2dclmro4Gx/1X5s3+Tcu4+e5NLTPLwVWPGywQOUp7ny2Eeu93VHZ6nfoRJT1CYgaO9nFjZbVGUT/02rwx196L3q+oOxqHQ/bxqaradmW97vlM2PyWfu+ifntrYsM2Mq6u1GSfNbRbN5zswjw6jy967HQJUiab3lBc2kJV9D2d3zA18wdnXJ1T9poLJlXa32QL99zbfjHMqg2zTCwUIhcxYKpaz/QGHaPjx09oMk5oL7QtvWuimaZqv6AL2AyT5dWtivqhN5bIsH7/NfOCw1JX1nZ2IGB4od1/xjjusl8qb6FIckRTJiEzKfXb2xNhm95w/IRGcUbfYtlcipMy4clAEfRnYBGOpUTqKy7NTK65nzW2FT902B2LF07RXbv67c3xsEU7gNIP2lsXunTckbcQf3wEULVdM2yax2yj9pBrPTQ7YuS91NhhysQ2J1KfUmt/N4WNb+hZJpXm+2fLs1OzDWfai65O9llcz66h5cEk52JTJkrVkn16qNkc0j+Ls24kQ63hMo3RUJgykTSnCBqy9VG2f3l2zu28Uy8YXuA6XSEy2dfNc2veiWmPddk3MWjcfl0VvZ2LGLddbjkVz4LcG3dyzdNTBIe4+pOaI+HGK8fLF+0TmRa5+JB0iFvOJY94yiQMI4xwjJurO66MhGyGifJTrdmnUYcbcQdih7u9MC+7cXba5X7SSL/9QSsdgja94dvyln2ndE3m0FhTVwYKBeQOOkqquA8upwpcI3Kfi8sQNM+56nl+uUP9wHj7+tuCx07XtPFo7BwLtz4jR3z0FdMWSf4OmMyVw70W6sP8Sirn3ste8zwdlVcOtthCw8+69qlaixt1ZbWRV3Lop6rBpmmvaWj8eHT8ycgRwQEjHyeHFMFI5az+mAuy/lg98RGG7CmQMnEIQYYJY5hkVaZKe59aNuZ6h4+Wa/ad6n9kDM519m+/867qqb09dOmF1eTytdyMvpuP6sYPFg3GifXVu/Utijs2h9N6mn65xaRMQ487ULRVaUo1665RA3qfXTrwyh7q+g1lBZRKozw/ePmGFi2bKR14tbRdXv8usMymTHS7yofLwpRp8K8ORk5Nl8+p2977tIfAJto0F0zSqA69w4a9TFH6iSAcA6ZKc0rrW5mZv3hZm8++cI0VQqk0NHP0maoWNMu0OFdZqqnt9uked2TUTIy4HVdPIPZi5YiPdYTMpEr7mhY33tH5MKXS1PXEnWViUqY25X37kiu04go5DGNFvO6Woz8Di3AsxYWL+7yM46iaVh1m55jT13YbuSpTWXln0b5iu1jZklE7PuRaf3IxXjTDRgBV+yWd32IwVZ3SKGoHm8zh2daYORN8txdrIK7ypPqUqq2y2WU3z9ewe5Aq+x5MBNeWvRZXeLp76AjdE0edi48nHam2fP6tdd+WL7C1bDSVczb/cBXgXnOZxpTvPGVC9XEasvIpVfvZvoBjaCQ3ahH2J+wFDxlKrb1rDM31Dn9Lx/aHxpBdN8zMlzK3YxCjYeeVU/EsiFVGpJCnJ6qJwyGu/qQmSLjxykny4/SJqMMSMI1MV5KSvHw70TDCiBW6Oa9jRR2uYVSsw2X3Mp0YaFoITbx5x/T+jJzOO5EOWt3idhmiHbdoBy3yvLL8SRgB6Igaw5BIytTY/bsxZO3WHRKkTHhG4UZf+xvnzf7IRkefZ+kyM8piUiaBfBEmY+WwBsLrkzjzeZ5Oqdrru31Ok7GkNLIKgxkZsu3iL3A4MDV58vG3I7XxfRCpXESOmP4CPUkRhiQ/Q62BlCneIGNXoVYE8V38pDhnaJ7y2hzeyWmPY9neGJ1xYkVRqtaGvqBw+RA3WFAqTdETp2uBPirq1Njguq/pCnp29t0tMzL7/g2KvEqUGuneLIXe0hGZbYiuv10uPP4hQ63BpUyR4yWYQS2zLIorMy2uY8CEWaaP8wsumMj6Vf2/9jpNSyG3L2ydtt64yIwD2lQPF0YWfFabz2Lz2VxbK/SCOlLKRJQjNsuEYeZuU6bWjBOdxfXa6ja3a2rikLqFUuH1Z9iOGUuJ1s+oGu11vfeap1WcN3xoDZs1PPREe7xpbdU0xXstynMrUgTgVqNUGnX0pQlbvsNuT7w+syhiyW67ciYScqnSrrtT/rHWgcLSloyKnlsjvjmtjh47RmfteHhyDqrZX933+1jA1q/PiZer8JmGW5hH0pykIVs/o8agc/ne/IKZbd6uw/EUPpJ1k4b1mBUEds7BOULEGJmk8uivGAtilREp5OlJxEFUfxH5RNx4eJLli/SJ4viIacWxFFONSx7RlAkTRhgJGDfndKxo+i5uh4tSpuibgjXbT9GVt6iDdmytOVFstNh8C86gfXCEdp84HXRCCMigMteIzOMIGRJJmS7RIyKVJj82ZRLW58JCGn3F1GFSJpx8ESZzJXCvSfqQyrn38q55np5ROzGy7nl+mR0Zbu4oZaIdB4sDX77AxXj6MKNQYR8kUh4jYQf6x+hJjjDZu8FmAAAJl0lEQVQxYjlqQ8oU6b9JAKVOOdpBOOZj16JQlQN3tcZ6et8R/S7cv6xD7+C5CnODBaVqvzwc9vk219wba+6w279lYpbH0Ds62FkmRFb2ZRVhluk1p3xns0zEHoWrbYpfx4AZu90C9jIlajsumDH3VnRf1wfWDAZ0SH3txPC699X1yPwnuwdJLGViQxtHDlXa85d5U/coMs9Z1xPdfccZgnOTeQoteNuw6cdUla3ZZ4ZbLBvxFubF7L0peeN2TYyhA1oI+jPPKxxLidSn1B0Nvb6lMYt2MahHSyYibo4OK3uxujpr7TSHdA8juxNj8GQBod/k4SOASqM81ZlDb4+MpkzotTcrJ9FuT1ifUrWVNa3Y7fZrDZx4e8Y4vu68UR1paP8Ni81hqUNvN/F4cl/uoOncuzanzVzFSSBZhbkXQqYlMMtE0JCRT6k0Ja9dLvMMu29zu93SNkXsNCPzEw8ZxAHv6t3o0hc0+b9sYU4mxCNGv0UWIolWAYhacFsxDh9ECnl6ZhBwENE/IhyHAwk3YXlc+bw+kR5XYZhGqTuOXdBmq1qy63uOVbdQpZ0l59GKCREEmJ+45Ek0jDAShG6++1mmiv4XlvB0e2TTLC0n2H6Ln65TpQPiHXTcp5ZZBa4RiQwh7TUiedwORl9cGIl7maL+KGQy93budUKRgXsj9prv6aeNY74tF71WYsUVdvvjpExxR6F8+dHn5SlDimCk8u3beRGGoD9Jz7gRZruhqOZiKVP2gUJlzsGKk3X6EaMy56Ay56DIUeM8XgpbgpKPQYBSab596rTPmUqjQwS0fGUxPNU5dLSiNfeCoXsprH/CX9nPNQpVPtThDHX9FtkEX6bxuIz0Bkc0cNxaGjeeqNIo6gZfmTfmOrb3Mi0ZJitqWrPrdM+mw2atYC/TmdH2xcheJkql2V+GTvCj9zLNlp+IHL3FHehwB6Yfg8ae3BsD5vaJeW3K+sGXs+G5Du6JeeaaCuY0LQTCPtzgaU8eIXUajQXz7ZU+10Cz7lC5JqNce6HPxxwDkFE/afB4X99AKVNm7WDT7Ib4LBOlxsuhVG0NfYHlSWNFdavynOGtPTz8FHmKCDPR/um5gMsbXpy2vBqJtzCPJoN9bKqipi27HnlQ5DAAgv4RK9RNGryeVzc66XPqaJIQ6qPZod9tiyvLN+o1OTctZtfq/eiRD0hU9Wjv2pZ3xXaeXe0WDe48cxMjgFp7cyxk7hs5XtmaXT/YZI7sNqRUmn20RyvvWO1Oa0Nlm6Jcw64J5Aln3gJi61OqNvVzp93huH2xnT6Rr01RhuRQlcPaldBY29DxqlZFTd9tvd9lmvpWHTkxT4hnxF7oxDxNdk3fndHA2vjY1/Gci8s0RmdhykR6UpKGjByqbOCVLcKlGDRqRntXt1zznD9yICCJksOFDcvQeEVNW+45/avZkLVnEE0UkBAjlRMsGNGzXN+5uuUcMUTOWSXQQ8yCJEsR9I+gIcBBHDchniR8InKEfSIBH7SHweu8Xau9M7Vh7uzPvm11rDsaE1zVuYswgvQUuDnF7GUaGS+rZsJFdGsfvZcJ1+Fu72VSNM6Y3J5XzJY/dUejPmjuGz5S1pJxovtG36quCa2njdnLxOmgI0YhW1+uFbgRgOhZ6MS8sEVnUFWiUdCL2ehoh8ConYy+uHjSJ+Zh5DN1hKM77r3ca6L+BD2593KviRFP3V5Yrz3CfM7omiyxKVPV4AuTxzQ4dizeKJQkP6KDUA4hglGE8ogcQYShCPqT7CUeYbiIsddiKVP3O71pZpH7yVIWkLImLi9Z6XAhFQL7GiaHV72vrse8Usq+ON5u8q/6ttyrHl27vjjKY7ZRrlH2XzVbXEuN0f+B2d84N+92XK9iFuZtjnbN6BbRsiizwVTDOTEv8tdD6+i8soroSXeZ5wyd80G3L2ybNjfpA8z/MjHrBNg/KkF/n+L3v7nGX/jHzhWwSqbLBRdMpDPz1zGeLe96YIrzFzGKe3ZXYPs/W/z+Heww+dy7MU3udVOvOej2b/n8G/Z52+3Iwrz2ipdL0yvhldXAvNHyVOdllnSSZpnQUTk4OchYpwYeRs5+9I1oR47SniKSMrGcpFSa+ndxUiYuGTxu/3jvmJoejVEqvP6McErdUdfqXFzf8gXeMyQh1q81vHMGBx7SaZ66o77Htzo3XRbd9EX/E9pGnGPNaYKRIgA6w+C0vmnCS/9vkn+8bzyiP1rQiP4Hif34fWjPGAsO74JeuYSpT+McU+5dnCsvRXvP8q8atTO+Fe+WZz04Y5g7fzo6BxV1rhg86Zc79P8ybfl8IfOU+Se2PtmD+G6LW5hH1FxEQ7Um9zebY9X2UzSibqNxakTr2HCajOzsE0k+/W8qI01jXoeH+Weq8VKGOdEnZZGPIEYoJ1mQUQnZ3efXCHa6biscRY+kp4ilMhsw+kckC3Bgykm4YctF5Av7RBLT9l0wTS7bL1d1NOoDE296FFfm5hzWhqgHCXFgS/jkSTyMCN0cHaMXPTHP46LDBasJ9+/Ioh1u7Il5rWXNrpVFcx2zPK8GHWlrd226XQGTfrvjxnbQ7EN9bhdcI5IYwvwv08txFAPdLv9YX+R/mUTqxx198XDeV68XymfqCJnMu5f9StKHVM7eyLsgeTq3Gi0zNmWqGdUub/JOzMPiEEc+Tg62DxKPbBmECMM8BU9/rJ6kCMzFgXctljKRsiNsOZeXvDbg614hAEaREHkA8/MBk50yza7ufWTamI9OIUqIgGSiTk8a3OuP4x78EB0WS9ZumggUuq3igcNNv9Rg8hB5A8LslnGbt6e85P280j6dkDzSygdpSUAAjJgEkD+fJiBlir7XTJMRQELUhGCREFzilQFMcXwS+jXFwaRKdZrlLX8QzXrZps3Mfwol9IDJqUypNKpm95ppUvzgh+Qok5qtpDjTPjVo9CRkaGQHp7F/ak3SUf5nTp50NJlQZzCiEBMo2TUCkDJByiRnBHbtGMIbIfIKMdl1CYC5a+jgxoQQAKYlBBdU5iIA5OGikabXYMQ0NVxqqg0pk5wTBggWEnodgAlgSogAiEoOAuC2ycFZlq0AeWRgVjCiDIyYOo8AKROkTHJGQEJPg8gLYEqIAIhKDgLgtsnBWZatAHlkYFYwogyMmDqPACmTnBMGCBYSehqACWBKiACISg4C4LbJwVmWrQB5ZGBWMKIMjJg6j/BF4aFi+AACgAAgAAgAAoAAIAAIAAKAACAACGAR+OLL/3wFH0AAEAAEAAFAABAABAABQAAQAAQAASwC/w9Q83BeWSza+QAAAABJRU5ErkJggg==;" vertex="1" parent="4">
                    <mxGeometry y="54" width="1126" height="54" as="geometry"/>
                </mxCell>
            </root>
        </mxGraphModel>
    </diagram>
</mxfile>